<?xml version="1.0" encoding="UTF-8" standalone="no"?>
<!-- Created with Inkscape (http://www.inkscape.org/) -->
<svg xmlns:dc="http://purl.org/dc/elements/1.1/" xmlns:cc="http://creativecommons.org/ns#" xmlns:rdf="http://www.w3.org/1999/02/22-rdf-syntax-ns#" xmlns:svg="http://www.w3.org/2000/svg" xmlns="http://www.w3.org/2000/svg" xmlns:xlink="http://www.w3.org/1999/xlink" xmlns:sodipodi="http://sodipodi.sourceforge.net/DTD/sodipodi-0.dtd" xmlns:inkscape="http://www.inkscape.org/namespaces/inkscape" width="775" height="300" id="svg2" version="1.1">
  <g inkscape:label="Layer 1" inkscape:groupmode="layer" id="layer1" transform="translate(-305.12151,-128.51409)">
    <rect style="fill:#37a431" id="rect7781" height="7.974" width="30.898001" clip-path="url(#SVGID_1323_)" y="73.735001" x="389.811" transform="matrix(25.082529,0,0,25.082529,-9472.3243,-1620.9543)"/>
    <rect id="rect7783" height="3.987" width="15.948" clip-path="url(#SVGID_1323_)" y="69.749001" x="389.811" transform="matrix(25.082529,0,0,25.082529,-9472.3243,-1620.9543)"/>
    <path style="fill:#ffffff" id="path7785" d="m 392.77,70.726 c 0.007,-0.033 0.01,-0.052 0.01,-0.058 0,-0.021 -0.01,-0.037 -0.028,-0.049 -0.227,-0.148 -0.503,-0.222 -0.828,-0.222 -0.408,0 -0.746,0.128 -1.013,0.384 -0.266,0.257 -0.398,0.582 -0.398,0.975 0,0.38 0.122,0.688 0.367,0.924 0.243,0.236 0.563,0.353 0.959,0.353 0.22,0 0.393,-0.038 0.518,-0.113 0.024,-0.014 0.04,-0.045 0.046,-0.095 0,0 0.068,-0.472 0.07,-0.491 0.005,-0.037 -0.016,-0.032 -0.112,-0.001 -0.187,0.054 -0.34,0.081 -0.46,0.081 -0.19,0 -0.348,-0.063 -0.472,-0.192 -0.124,-0.128 -0.187,-0.291 -0.187,-0.489 0,-0.213 0.071,-0.387 0.212,-0.521 0.142,-0.135 0.324,-0.202 0.551,-0.202 0.218,0 0.404,0.05 0.561,0.149 0.048,0.031 0.077,0.046 0.088,0.046 0.016,0 0.027,-0.024 0.036,-0.071 l 0.08,-0.408 z" clip-path="url(#SVGID_1323_)" transform="matrix(25.082529,0,0,25.082529,-9472.3243,-1620.9543)"/>
    <path style="fill:#ffffff" id="path7787" d="m 394.651,70.534 c -0.007,-0.035 -0.024,-0.052 -0.056,-0.052 h -0.753 c -0.034,0 -0.06,0.015 -0.075,0.046 l -1.16,2.346 c -0.004,0.013 -0.006,0.023 -0.006,0.029 0,0.017 0.009,0.023 0.026,0.023 h 0.632 c 0.039,0 0.064,-0.013 0.078,-0.039 l 0.162,-0.336 c 0.014,-0.026 0.035,-0.039 0.066,-0.039 h 0.795 c 0.03,0 0.048,0.014 0.052,0.042 l 0.085,0.339 c 0.005,0.022 0.02,0.033 0.046,0.033 h 0.563 c 0.021,0 0.029,-0.01 0.029,-0.029 v -0.014 l -0.484,-2.349 z m -0.398,1.431 h -0.473 c -0.015,0 -0.022,-0.004 -0.022,-0.01 l 0.006,-0.02 0.315,-0.717 c 0.008,-0.013 0.013,-0.02 0.018,-0.022 0.006,0.004 0.012,0.015 0.016,0.032 l 0.166,0.695 c 0.005,0.017 0.007,0.026 0.007,0.029 0,0.008 -0.011,0.013 -0.033,0.013" clip-path="url(#SVGID_1323_)" transform="matrix(25.082529,0,0,25.082529,-9472.3243,-1620.9543)"/>
    <path style="fill:#ffffff" id="path7789" d="m 395.446,72.893 c 0,0.022 0.019,0.033 0.056,0.033 h 0.545 c 0.029,0 0.047,-0.015 0.052,-0.046 l 0.195,-1.394 c 0.004,-0.029 0.008,-0.043 0.01,-0.043 0.007,0.004 0.015,0.015 0.025,0.033 l 0.8,1.404 c 0.017,0.031 0.043,0.046 0.077,0.046 h 0.558 c 0.037,0 0.058,-0.013 0.062,-0.039 l 0.326,-2.369 c 0,-0.024 -0.014,-0.036 -0.043,-0.036 h -0.576 c -0.04,0 -0.061,0.016 -0.065,0.049 l -0.177,1.264 c -0.004,0.033 -0.009,0.049 -0.016,0.049 -0.006,0 -0.016,-0.012 -0.029,-0.036 l -0.729,-1.28 c -0.019,-0.031 -0.044,-0.046 -0.078,-0.046 h -0.619 c -0.031,0 -0.048,0.014 -0.053,0.042 l -0.321,2.369 z" clip-path="url(#SVGID_1323_)" transform="matrix(25.082529,0,0,25.082529,-9472.3243,-1620.9543)"/>
    <path style="fill:#ffffff" id="path7791" d="m 400.611,72.874 -0.492,-2.343 c -0.006,-0.033 -0.025,-0.049 -0.058,-0.049 h -0.717 c -0.035,0 -0.06,0.014 -0.072,0.042 l -1.154,2.356 c -0.006,0.013 -0.01,0.022 -0.01,0.03 0,0.011 0.009,0.016 0.027,0.016 h 0.625 c 0.033,0 0.056,-0.012 0.068,-0.036 l 0.177,-0.342 c 0.012,-0.024 0.035,-0.036 0.067,-0.036 h 0.753 c 0.039,0 0.063,0.018 0.068,0.052 l 0.062,0.316 c 0.008,0.031 0.027,0.046 0.063,0.046 h 0.557 c 0.026,0 0.04,-0.006 0.04,-0.02 0,-0.015 -0.002,-0.026 -0.004,-0.032 m -0.844,-0.933 c 0,0.015 -0.012,0.023 -0.036,0.023 h -0.44 c -0.027,0 -0.042,-0.007 -0.042,-0.021 0,-0.007 0.003,-0.016 0.008,-0.029 l 0.318,-0.72 c 0.01,-0.018 0.016,-0.028 0.02,-0.03 0.005,0.004 0.009,0.014 0.014,0.03 l 0.156,0.713 c 0,0.002 0.001,0.008 0.003,0.016 v 0.018 z" clip-path="url(#SVGID_1323_)" transform="matrix(25.082529,0,0,25.082529,-9472.3243,-1620.9543)"/>
    <path style="fill:#ffffff" id="path7793" d="m 401.266,70.481 c -0.024,0 -0.038,0.017 -0.042,0.052 l -0.339,2.366 c 0,0.017 0.01,0.026 0.028,0.026 h 1.369 c 0.028,0 0.045,-0.013 0.049,-0.039 l 0.065,-0.479 c 0,-0.022 -0.011,-0.033 -0.033,-0.033 h -0.653 c -0.027,0 -0.04,-0.012 -0.04,-0.036 v -0.006 l 0.244,-1.822 c 0,-0.02 -0.011,-0.029 -0.032,-0.029 h -0.616 z" clip-path="url(#SVGID_1323_)" transform="matrix(25.082529,0,0,25.082529,-9472.3243,-1620.9543)"/>
    <path style="fill:#ffffff" id="path7795" d="m 404.108,72.004 c 0,-0.029 0.014,-0.043 0.042,-0.043 h 0.81 c 0.023,0 0.034,-0.013 0.034,-0.038 v -0.666 c 0,-0.028 -0.011,-0.042 -0.034,-0.042 h -0.818 c -0.022,0 -0.033,-0.015 -0.033,-0.046 v -0.752 c 0,-0.022 -0.014,-0.033 -0.042,-0.033 h -0.665 c -0.021,0 -0.033,0.011 -0.033,0.033 v 0.752 c 0,0.031 -0.013,0.046 -0.039,0.046 h -0.873 c -0.023,0 -0.035,0.012 -0.035,0.036 v 0.668 c 0,0.028 0.013,0.042 0.039,0.042 h 0.866 c 0.028,0 0.042,0.016 0.042,0.049 v 0.877 c 0,0.026 0.013,0.039 0.036,0.039 h 0.668 c 0.024,0 0.036,-0.015 0.036,-0.046 v -0.876 z" clip-path="url(#SVGID_1323_)" transform="matrix(25.082529,0,0,25.082529,-9472.3243,-1620.9543)"/>
    <path style="fill:#ffffff" id="path7797" d="m 392.393,78.896 h 0.267 c 0.396,0 0.711,-0.118 0.947,-0.353 0.231,-0.232 0.347,-0.539 0.347,-0.923 0,-0.383 -0.115,-0.691 -0.347,-0.922 -0.236,-0.236 -0.551,-0.353 -0.947,-0.353 h -0.267 v 2.551 z m -1.183,1.002 v -4.557 h 1.74 c 0.378,0 0.737,0.099 1.077,0.297 0.362,0.209 0.648,0.497 0.86,0.863 0.204,0.352 0.306,0.726 0.306,1.122 0,0.393 -0.101,0.766 -0.303,1.118 -0.211,0.365 -0.498,0.653 -0.86,0.863 -0.338,0.196 -0.697,0.294 -1.08,0.294 h -1.74 z" clip-path="url(#SVGID_1323_)" transform="matrix(25.082529,0,0,25.082529,-9472.3243,-1620.9543)"/>
    <path style="fill:#ffffff" id="path7799" d="m 397.867,77.929 c -0.101,-0.328 -0.313,-0.493 -0.641,-0.493 -0.334,0 -0.54,0.165 -0.617,0.493 h 1.258 z m 1.015,0.632 h -2.303 c 0.012,0.259 0.078,0.442 0.198,0.549 0.111,0.096 0.268,0.145 0.469,0.145 0.154,0 0.276,-0.033 0.365,-0.098 0.053,-0.04 0.11,-0.104 0.169,-0.193 h 1.06 c -0.071,0.224 -0.15,0.389 -0.237,0.496 -0.309,0.374 -0.764,0.561 -1.365,0.561 -0.556,0 -0.995,-0.161 -1.316,-0.481 -0.3,-0.293 -0.448,-0.68 -0.448,-1.16 0,-0.522 0.166,-0.932 0.498,-1.228 0.309,-0.275 0.716,-0.413 1.223,-0.413 0.553,0 0.981,0.168 1.281,0.502 0.271,0.3 0.407,0.702 0.407,1.204 v 0.116 z" clip-path="url(#SVGID_1323_)" transform="matrix(25.082529,0,0,25.082529,-9472.3243,-1620.9543)"/>
    <path style="fill:#ffffff" id="path7801" d="m 401.103,77.662 c -0.194,0 -0.36,0.069 -0.499,0.208 -0.134,0.136 -0.201,0.299 -0.201,0.489 0,0.192 0.068,0.356 0.204,0.492 0.141,0.141 0.309,0.211 0.505,0.211 0.196,0 0.364,-0.069 0.504,-0.207 0.136,-0.137 0.202,-0.3 0.202,-0.49 0,-0.192 -0.068,-0.357 -0.205,-0.495 -0.136,-0.14 -0.306,-0.208 -0.51,-0.208 m -0.671,3.591 h -1.094 v -4.428 h 1.094 v 0.341 c 0.042,-0.049 0.081,-0.093 0.116,-0.133 0.226,-0.204 0.507,-0.306 0.846,-0.306 0.427,0 0.79,0.15 1.089,0.452 0.314,0.316 0.471,0.712 0.471,1.189 0,0.475 -0.156,0.869 -0.471,1.184 -0.295,0.297 -0.654,0.445 -1.078,0.445 -0.201,0 -0.393,-0.037 -0.575,-0.11 -0.124,-0.049 -0.257,-0.147 -0.397,-0.291 v 1.657 z" clip-path="url(#SVGID_1323_)" transform="matrix(25.082529,0,0,25.082529,-9472.3243,-1620.9543)"/>
    <path style="fill:#ffffff" id="path7803" d="m 405.128,77.65 c -0.191,0 -0.355,0.069 -0.493,0.208 -0.139,0.136 -0.208,0.3 -0.208,0.492 0,0.2 0.069,0.369 0.208,0.507 0.137,0.137 0.302,0.205 0.495,0.205 0.195,0 0.361,-0.069 0.499,-0.207 0.138,-0.137 0.208,-0.303 0.208,-0.499 0,-0.196 -0.069,-0.362 -0.205,-0.498 -0.137,-0.139 -0.305,-0.208 -0.504,-0.208 m 0.011,-0.942 c 0.394,0 0.747,0.089 1.059,0.267 0.256,0.147 0.452,0.341 0.591,0.582 0.139,0.239 0.208,0.507 0.208,0.804 0,0.447 -0.149,0.821 -0.447,1.121 -0.171,0.168 -0.376,0.298 -0.618,0.389 -0.249,0.095 -0.518,0.143 -0.803,0.143 -0.586,0 -1.058,-0.179 -1.413,-0.534 -0.3,-0.297 -0.448,-0.662 -0.448,-1.095 0,-0.459 0.155,-0.844 0.463,-1.154 0.343,-0.347 0.813,-0.523 1.408,-0.523" clip-path="url(#SVGID_1323_)" transform="matrix(25.082529,0,0,25.082529,-9472.3243,-1620.9543)"/>
    <path style="fill:#ffffff" id="path7805" d="m 407.465,76.825 h 1.094 v 0.505 c 0.164,-0.277 0.412,-0.45 0.742,-0.52 0.164,-0.029 0.327,-0.034 0.489,-0.014 v 1.032 c -0.162,-0.073 -0.313,-0.11 -0.453,-0.11 -0.238,0 -0.427,0.069 -0.564,0.208 -0.079,0.077 -0.135,0.165 -0.166,0.264 -0.032,0.097 -0.048,0.227 -0.048,0.392 v 1.317 h -1.094 v -3.074 z" clip-path="url(#SVGID_1323_)" transform="matrix(25.082529,0,0,25.082529,-9472.3243,-1620.9543)"/>
    <polygon style="fill:#ffffff" id="polygon7807" points="412.141,76.825 412.141,77.729 411.518,77.729 411.518,79.898 410.423,79.898 410.423,77.729 410.064,77.729 410.064,76.825 410.423,76.825 410.423,75.9 411.518,75.9 411.518,76.825 " clip-path="url(#SVGID_1323_)" transform="matrix(25.082529,0,0,25.082529,-9472.3243,-1620.9543)"/>
    <path style="fill:#ffffff" id="path7809" d="m 414.645,77.929 c -0.101,-0.328 -0.314,-0.493 -0.641,-0.493 -0.334,0 -0.539,0.165 -0.617,0.493 h 1.258 z m 1.015,0.632 h -2.302 c 0.012,0.259 0.078,0.442 0.198,0.549 0.111,0.096 0.267,0.145 0.469,0.145 0.154,0 0.276,-0.033 0.365,-0.098 0.054,-0.04 0.109,-0.104 0.169,-0.193 h 1.059 c -0.07,0.224 -0.149,0.389 -0.236,0.496 -0.31,0.374 -0.764,0.561 -1.365,0.561 -0.555,0 -0.994,-0.161 -1.317,-0.481 -0.299,-0.293 -0.447,-0.68 -0.447,-1.16 0,-0.522 0.166,-0.932 0.498,-1.228 0.309,-0.275 0.716,-0.413 1.223,-0.413 0.554,0 0.98,0.168 1.281,0.502 0.271,0.3 0.406,0.702 0.406,1.204 v 0.116 z" clip-path="url(#SVGID_1323_)" transform="matrix(25.082529,0,0,25.082529,-9472.3243,-1620.9543)"/>
    <path style="fill:#ffffff" id="path7811" d="m 418.539,76.917 -0.369,0.703 c -0.21,-0.1 -0.409,-0.151 -0.598,-0.151 -0.107,0 -0.194,0.026 -0.258,0.077 -0.049,0.04 -0.074,0.087 -0.074,0.142 0,0.099 0.096,0.171 0.285,0.214 l 0.044,0.009 c 0.073,0.018 0.159,0.038 0.258,0.059 0.198,0.042 0.361,0.112 0.487,0.211 0.21,0.165 0.314,0.391 0.314,0.679 0,0.416 -0.181,0.727 -0.542,0.935 -0.255,0.146 -0.562,0.22 -0.924,0.22 -0.408,0 -0.823,-0.12 -1.242,-0.359 l 0.394,-0.766 c 0.325,0.212 0.616,0.317 0.876,0.317 0.104,0 0.192,-0.026 0.261,-0.08 0.056,-0.043 0.083,-0.095 0.083,-0.157 0,-0.061 -0.03,-0.117 -0.092,-0.169 -0.042,-0.034 -0.166,-0.072 -0.374,-0.115 -0.299,-0.066 -0.516,-0.151 -0.653,-0.256 -0.172,-0.134 -0.258,-0.332 -0.258,-0.593 0,-0.419 0.172,-0.727 0.517,-0.923 0.233,-0.132 0.518,-0.199 0.852,-0.199 0.156,0 0.332,0.017 0.528,0.051 0.129,0.02 0.292,0.07 0.485,0.151" clip-path="url(#SVGID_1323_)" transform="matrix(25.082529,0,0,25.082529,-9472.3243,-1620.9543)"/>
  </g>
</svg>